<?xml version="1.0" encoding="UTF-8"?>
<svg version="1.1" xmlns="http://www.w3.org/2000/svg" width="512" height="512">
<path d="M0 0 C5.53485291 0.01139319 11.06951326 0.00460301 16.60435963 -0.00688553 C38.92372942 -0.04602984 61.20026493 0.18549947 83.49902344 1.19824219 C84.42677078 1.24027519 85.35451813 1.2823082 86.31037903 1.32561493 C116.86157282 2.74538768 144.75150381 4.48853527 166.70996094 28.52246094 C181.14899507 46.31198917 210.64355469 94.59573498 210.64355469 118.26074219 C212.95355469 118.26074219 215.26355469 118.26074219 217.64355469 118.26074219 C217.59714844 117.31972656 217.55074219 116.37871094 217.50292969 115.40917969 C217.20795259 105.23246994 217.20795259 105.23246994 219.26855469 100.63574219 C225.04199636 94.86230052 228.60894566 93.75275016 236.76464844 93.71386719 C238.43720703 93.73707031 238.43720703 93.73707031 240.14355469 93.76074219 C241.25859375 93.74527344 242.37363281 93.72980469 243.52246094 93.71386719 C249.85727382 93.74406892 253.86260731 93.96104529 258.64355469 98.26074219 C262.07272541 101.96063692 262.94325217 104.83997709 263.14355469 109.76074219 C262.92891469 114.71087707 262.15130008 117.57760953 258.64355469 121.26074219 C246.57660916 131.38421331 230.37852653 129.62593277 215.64355469 129.26074219 C221.47307488 147.52657211 229.90217485 162.72925145 240.88330078 178.44848633 C251.54479703 193.92818391 256.23396954 208.73834004 256.01855469 227.51074219 C256.00985352 228.78344971 256.00115234 230.05615723 255.9921875 231.36743164 C255.8211738 242.3760879 254.45691724 252.48106062 251.61413574 263.10946655 C248.55008444 274.8379249 248.09334624 286.09836737 248.15769958 298.17973709 C248.17522898 301.56934854 248.16731424 304.95812737 248.15344238 308.3477478 C248.12834423 315.52713906 248.13357626 322.70632508 248.14355469 329.88574219 C248.15511683 338.24921244 248.15390684 346.61227058 248.11949158 354.97568893 C248.11242862 358.30390684 248.12902284 361.63145998 248.14660645 364.95962524 C248.14089884 367.00352329 248.13408169 369.04741865 248.12597656 371.09130859 C248.13729111 372.00674438 248.14860565 372.92218018 248.16026306 373.86535645 C248.09843357 380.40442865 246.77572138 385.87510719 242.23162079 390.78693581 C236.11204722 396.19746496 230.61132454 396.5776355 222.81152344 396.59667969 C221.86094559 396.60333649 220.91036774 396.60999329 219.9309845 396.61685181 C217.92300343 396.62695897 215.9149889 396.63166943 213.90698242 396.63134766 C210.8518059 396.63571254 207.79808445 396.67202997 204.74316406 396.70996094 C202.78678876 396.71583134 200.83040664 396.71979924 198.87402344 396.72167969 C197.9685527 396.73605072 197.06308197 396.75042175 196.13017273 396.76522827 C190.14848278 396.7226361 185.64422149 395.64026313 180.64355469 392.26074219 C178.58496094 390.04199219 178.58496094 390.04199219 177.20605469 387.76074219 C176.49642578 386.63152344 176.49642578 386.63152344 175.77246094 385.47949219 C169.94002508 374.01643486 173.64355469 356.0465153 173.64355469 346.26074219 C63.42355469 346.26074219 -46.79644531 346.26074219 -160.35644531 346.26074219 C-160.35644531 357.15074219 -160.35644531 368.04074219 -160.35644531 379.26074219 C-164.8634583 390.52827466 -164.8634583 390.52827466 -168.41894531 392.82324219 C-169.09054688 393.27828125 -169.76214844 393.73332031 -170.45410156 394.20214844 C-173.55386537 395.92706834 -176.12835874 396.39210944 -179.60913086 396.43774414 C-180.46399582 396.45057938 -181.31886078 396.46341461 -182.19963074 396.47663879 C-183.58242973 396.48771919 -183.58242973 396.48771919 -184.99316406 396.49902344 C-185.94657181 396.50709518 -186.89997955 396.51516693 -187.88227844 396.52348328 C-189.9022134 396.53731668 -191.92217166 396.54804216 -193.94213867 396.5559082 C-197.01494366 396.57308012 -200.08666108 396.61696829 -203.15917969 396.66113281 C-205.12466659 396.67126383 -207.09016262 396.67977865 -209.05566406 396.68652344 C-209.96740891 396.70403152 -210.87915375 396.72153961 -211.81852722 396.73957825 C-218.42977099 396.71736246 -223.91502403 395.44608844 -228.88212585 390.84858704 C-234.20669644 384.8293999 -234.64122353 379.56360991 -234.56420898 371.90112305 C-234.56301056 370.96335526 -234.56181213 370.02558746 -234.56057739 369.05940247 C-234.55742795 367.02041063 -234.55011677 364.98142195 -234.53914452 362.9424572 C-234.52418958 359.67656258 -234.52592671 356.41107478 -234.53279114 353.14515686 C-234.55150835 343.85698179 -234.55905744 334.56910233 -234.51098633 325.28100586 C-234.39490169 300.61121884 -234.55822819 276.89150094 -240.32410049 252.80256844 C-245.90072638 229.39991458 -244.10000977 204.90797677 -231.56298828 184.17138672 C-228.9836259 180.08678737 -226.21705231 176.13203211 -223.43774414 172.18188477 C-214.10864987 158.8748036 -207.20376229 144.77757252 -202.35644531 129.26074219 C-203.26185059 129.28430786 -203.26185059 129.28430786 -204.18554688 129.30834961 C-233.1034804 129.96156637 -233.1034804 129.96156637 -244.35644531 122.26074219 C-249.08475216 117.16871943 -249.71376586 113.82048866 -249.63378906 107.02246094 C-249.12410644 101.94717059 -246.64791226 99.42220998 -242.98925781 96.13183594 C-238.15952248 93.00467448 -232.39827823 93.68386127 -226.85644531 93.76074219 C-225.74140625 93.74527344 -224.62636719 93.72980469 -223.47753906 93.71386719 C-215.32183629 93.75275016 -211.75488698 94.86230052 -205.98144531 100.63574219 C-203.42348907 106.34195226 -204.05271794 112.10182595 -204.35644531 118.26074219 C-202.04644531 118.26074219 -199.73644531 118.26074219 -197.35644531 118.26074219 C-196.96070313 117.01808594 -196.56496094 115.77542969 -196.15722656 114.49511719 C-184.09634497 78.403896 -165.49325002 29.68750541 -130.48144531 10.88574219 C-120.91876714 6.46065974 -111.05542712 4.26571218 -100.63769531 3.22070312 C-99.81595322 3.13687252 -98.99421112 3.05304192 -98.14756775 2.96667099 C-88.75346192 2.0487495 -79.34726429 1.55468711 -69.91894531 1.15136719 C-68.96746613 1.10949532 -68.01598694 1.06762344 -67.03567505 1.02448273 C-44.69400344 0.06208126 -22.35917404 -0.04633221 0 0 Z " fill="#E85353" transform="translate(249.3564453125,57.7392578125)"/>
<path d="M0 0 C1.00749298 0.03911499 2.01498596 0.07822998 3.05300903 0.11853027 C13.16560151 0.52824275 23.25064422 1.15293902 33.33203125 2.05078125 C34.17648804 2.12235443 35.02094482 2.19392761 35.89099121 2.26766968 C44.01674094 3.04534917 51.41133779 5.18439339 59 8.125 C59.9075 8.47175781 60.815 8.81851563 61.75 9.17578125 C97.80194248 25.06405718 113.01361823 78.77989126 127.05078125 112.2265625 C127.61792847 113.57741943 127.61792847 113.57741943 128.1965332 114.95556641 C129 117.125 129 117.125 129 119.125 C104.24897002 121.15820118 79.49839682 123.17378012 54.6875 124.3125 C53.9177182 124.34897644 53.1479364 124.38545288 52.35482788 124.42303467 C46.23811672 124.70779271 40.1198773 124.92118451 34 125.125 C32.22965897 125.18805328 32.22965897 125.18805328 30.42355347 125.25238037 C-0.86514106 126.33582607 -32.16716211 126.3455063 -63.47076982 126.36382121 C-70.52720466 126.36802998 -77.583503 126.38005143 -84.63989258 126.40625 C-218.95708855 126.89376675 -218.95708855 126.89376675 -269 119.125 C-257.12640093 81.88507564 -236.9468258 27.87465111 -201 8.75 C-187.89259173 2.65900925 -174.22213833 2.02807944 -160 1.125 C-158.63882132 1.03258529 -157.27765641 0.93996747 -155.91650391 0.84716797 C-104.20933188 -2.58844102 -51.76239858 -2.04229841 0 0 Z " fill="#3AA1EA" transform="translate(326,66.875)"/>
<path d="M0 0 C1.03065293 -0.00382555 2.06130586 -0.00765109 3.1231907 -0.01159257 C6.56983496 -0.02189468 10.01631176 -0.01793562 13.46296692 -0.01396179 C15.93710992 -0.01830988 18.41125158 -0.02349336 20.88539124 -0.02944946 C26.90501389 -0.04145162 32.92457098 -0.04399174 38.94419958 -0.0416492 C43.84048332 -0.0398638 48.73675354 -0.04162045 53.63303566 -0.04587364 C54.67966559 -0.04676643 54.67966559 -0.04676643 55.74743957 -0.04767724 C57.16512106 -0.04888905 58.58280254 -0.05010318 60.00048403 -0.05131962 C73.28951011 -0.06219058 86.5785108 -0.06003519 99.86753831 -0.05393478 C112.00638853 -0.04877002 124.1451584 -0.06001016 136.28399273 -0.07903299 C148.76413683 -0.09843984 161.24424297 -0.10666216 173.72440225 -0.10290974 C180.72454078 -0.1010015 187.72461099 -0.1034481 194.72473717 -0.11762428 C201.31163493 -0.13082905 207.89839904 -0.1282394 214.48530579 -0.11521339 C216.89749519 -0.11285218 219.30969595 -0.1155659 221.72187233 -0.12383652 C245.02898693 -0.19796134 261.82877934 3.14398626 279.3216095 19.82319641 C280.0847345 20.62757141 280.8478595 21.43194641 281.6341095 22.26069641 C282.1291095 22.71186829 282.6241095 23.16304016 283.1341095 23.62788391 C290.20314955 30.20601841 296.32515385 38.64278513 300.6341095 47.26069641 C325.3841095 47.75569641 325.3841095 47.75569641 350.6341095 48.26069641 C351.2941095 42.32069641 351.9541095 36.38069641 352.6341095 30.26069641 C353.46516955 25.03760991 354.32301182 19.83865794 355.2591095 14.63569641 C355.49140017 13.32068397 355.72317162 12.0055797 355.954422 10.69038391 C356.50927402 7.54622247 357.06916883 4.40305781 357.6341095 1.26069641 C357.9641095 1.26069641 358.2941095 1.26069641 358.6341095 1.26069641 C358.7268876 14.16084946 358.79791444 27.06092281 358.84135818 39.96134186 C358.86221154 45.9518718 358.8904886 51.94217306 358.93586731 57.93257141 C358.97940454 63.71622966 359.00326354 69.49966828 359.01361847 75.28347778 C359.02099563 77.48744157 359.03540152 79.69139366 359.05702972 81.89526367 C359.08616777 84.98803969 359.09006107 88.07991407 359.08821106 91.17280579 C359.10259216 92.07911743 359.11697327 92.98542908 359.13179016 93.91920471 C359.08972248 100.44061982 357.751622 105.89046224 353.22206497 110.78720856 C347.10209659 116.19720129 341.60196878 116.57758951 333.80207825 116.59663391 C332.37621147 116.60661911 332.37621147 116.60661911 330.92153931 116.61680603 C328.91355824 116.6269132 326.90554371 116.63162365 324.89753723 116.63130188 C321.84236071 116.63566676 318.78863926 116.6719842 315.73371887 116.70991516 C313.77734357 116.71578556 311.82096145 116.71975346 309.86457825 116.72163391 C308.95910751 116.73600494 308.05363678 116.75037598 307.12072754 116.7651825 C301.13903759 116.72259033 296.6347763 115.64021735 291.6341095 112.26069641 C289.57551575 110.04194641 289.57551575 110.04194641 288.1966095 107.76069641 C287.72352356 107.00788391 287.25043762 106.25507141 286.76301575 105.47944641 C280.93057989 94.01638908 284.6341095 76.04646952 284.6341095 66.26069641 C174.4141095 66.26069641 64.1941095 66.26069641 -49.3658905 66.26069641 C-49.3658905 77.15069641 -49.3658905 88.04069641 -49.3658905 99.26069641 C-53.87290349 110.52822888 -53.87290349 110.52822888 -57.4283905 112.82319641 C-58.09999207 113.27823547 -58.77159363 113.73327454 -59.46354675 114.20210266 C-62.56331056 115.92702256 -65.13780393 116.39206366 -68.61857605 116.43769836 C-69.47344101 116.4505336 -70.32830597 116.46336884 -71.20907593 116.47659302 C-72.13094193 116.48397995 -73.05280792 116.49136688 -74.00260925 116.49897766 C-74.956017 116.50704941 -75.90942474 116.51512115 -76.89172363 116.5234375 C-78.91165859 116.5372709 -80.93161685 116.54799639 -82.95158386 116.55586243 C-86.02438885 116.57303434 -89.09610627 116.61692251 -92.16862488 116.66108704 C-94.13411178 116.67121805 -96.09960781 116.67973287 -98.06510925 116.68647766 C-98.9768541 116.70398575 -99.88859894 116.72149384 -100.82797241 116.73953247 C-107.43921618 116.71731668 -112.92446922 115.44604266 -117.89157104 110.84854126 C-123.31359582 104.71918656 -123.65411864 99.31606485 -123.59294128 91.51338196 C-123.59323334 90.53729477 -123.59352539 89.56120758 -123.59382629 88.55554199 C-123.59243532 85.33607529 -123.57688489 82.11684133 -123.561203 78.89741516 C-123.55747205 76.66253791 -123.55462547 74.42765902 -123.55262756 72.19277954 C-123.5449976 66.31553111 -123.52535448 60.4383818 -123.5032196 54.56117249 C-123.48274752 48.56193889 -123.47362292 42.56268926 -123.46354675 36.56343079 C-123.44210808 24.79580915 -123.40797973 13.02826103 -123.3658905 1.26069641 C-121.41729547 4.91933558 -120.74622697 8.15011549 -120.11198425 12.26460266 C-120.0062056 12.9431279 -119.90042694 13.62165314 -119.79144287 14.32073975 C-119.56901069 15.75669656 -119.34983809 17.19316159 -119.13371277 18.63008118 C-118.80798107 20.79271817 -118.47164496 22.95349009 -118.13346863 25.11421204 C-116.94484532 32.83659579 -116.07516831 40.45864059 -115.3658905 48.26069641 C-98.8658905 48.26069641 -82.3658905 48.26069641 -65.3658905 48.26069641 C-64.7058905 46.61069641 -64.0458905 44.96069641 -63.3658905 43.26069641 C-61.89004429 40.97578517 -60.39766093 38.771316 -58.8033905 36.57319641 C-58.13303772 35.6484552 -58.13303772 35.6484552 -57.44914246 34.70503235 C-43.52199938 15.75446017 -24.49299666 -0.09684412 0 0 Z " fill="#767474" transform="translate(138.3658905029297,337.7393035888672)"/>
<path d="M0 0 C1.00749298 0.03911499 2.01498596 0.07822998 3.05300903 0.11853027 C13.16560151 0.52824275 23.25064422 1.15293902 33.33203125 2.05078125 C34.17648804 2.12235443 35.02094482 2.19392761 35.89099121 2.26766968 C44.01674094 3.04534917 51.41133779 5.18439339 59 8.125 C59.9075 8.47175781 60.815 8.81851563 61.75 9.17578125 C84.28096124 19.10529141 96.76198325 44.33684481 106.16040039 65.77148438 C107.53521868 69.62529313 107.72130922 73.13320296 106.3125 77.0234375 C104.68020268 80.24722471 103.23947181 81.95628123 100.25 84.0625 C94.83661233 85.83226135 90.93983179 86.05761144 85.75 83.5625 C81.50172127 79.79698021 78.88199304 75.78725506 78.48583984 70.10498047 C78.45844926 68.65095042 78.45096336 67.19644131 78.4609375 65.7421875 C78.44324814 64.57624557 78.44324814 64.57624557 78.42520142 63.38674927 C78.3901591 60.92429205 78.38079342 58.46268541 78.375 56 C78.35861011 53.53042917 78.33649682 51.06123199 78.30337524 48.59182739 C78.28387734 47.06155014 78.27439595 45.53110198 78.27645874 44.0007019 C78.23607951 39.95185157 77.92194473 36.7240935 76 33.125 C71.70398873 30.3057426 65.95433644 30.29520966 61 31.125 C57.91201326 33.37557567 57.91201326 33.37557567 56 36.125 C55.67 36.455 55.34 36.785 55 37.125 C54.8893224 39.56219304 54.83838806 41.97580995 54.82421875 44.4140625 C54.80100073 45.92839901 54.77688262 47.44272194 54.75195312 48.95703125 C54.71697776 51.34660658 54.68758089 53.73568936 54.67407227 56.12548828 C54.65848729 58.43062604 54.61819273 60.7343133 54.57421875 63.0390625 C54.57612717 63.74350494 54.57803558 64.44794739 54.58000183 65.17373657 C54.44675195 70.6436136 52.97629506 73.69440657 50 78.125 C46.13437123 81.75634823 41.74030555 81.68948415 36.66015625 81.5390625 C32.35073157 80.86828568 30.85821532 79.41194762 28 76.125 C25.26552661 71.5595154 24.63989499 68.22800475 24.6640625 62.93359375 C24.65155757 61.56314624 24.6385208 60.19270349 24.625 58.82226562 C24.62106554 56.68708449 24.62506915 54.55237325 24.63964844 52.41723633 C24.64824058 50.33865468 24.62651907 48.26200508 24.6015625 46.18359375 C24.60494629 44.94923584 24.60833008 43.71487793 24.61181641 42.44311523 C23.83371055 38.22314846 22.30628202 36.77179238 19 34.125 C14.43467619 32.6032254 10.39826506 32.88755876 5.6875 33.6875 C2.69148968 34.90831028 2.69148968 34.90831028 1.85131836 38.22045898 C0.98051235 42.21437942 0.70403356 45.97115271 0.69140625 50.03515625 C0.66626184 51.53450936 0.6408636 53.03385823 0.61523438 54.53320312 C0.58647538 56.86563146 0.56241586 59.19798673 0.54370117 61.53051758 C0.52196504 63.80325748 0.48254575 66.07519657 0.44140625 68.34765625 C0.44129044 69.03843765 0.44117462 69.72921906 0.4410553 70.44093323 C0.34756673 75.05031858 -0.5957783 78.20061534 -3 82.125 C-6.67702577 85.52624883 -9.28622563 86.96332317 -14.3125 87.4375 C-18.79419215 87.05769558 -20.61379382 86.05971202 -24 83.125 C-28.14482983 77.31147858 -28.56579871 72.83832026 -28.50390625 65.80859375 C-28.5180381 64.34656273 -28.5180381 64.34656273 -28.53245544 62.85499573 C-28.56100174 59.75728071 -28.56418714 56.66033563 -28.5625 53.5625 C-28.56611316 50.46120682 -28.57569345 47.36046991 -28.60325623 44.2592926 C-28.61998387 42.33499663 -28.62296824 40.41051741 -28.61024475 38.4861908 C-28.65092836 33.29752716 -29.02289655 29.57646185 -32 25.125 C-35.34048103 22.89801265 -36.53285581 22.8538079 -40.4375 22.875 C-41.85869141 22.86726563 -41.85869141 22.86726563 -43.30859375 22.859375 C-46.21199858 23.14592294 -47.71622968 23.29798374 -50 25.125 C-52.14866947 30.91900829 -52.29446888 36.30732568 -52.30859375 42.44140625 C-52.33374055 44.44206037 -52.35913876 46.44271135 -52.38476562 48.44335938 C-52.41354105 51.57250235 -52.43758427 54.70159101 -52.45629883 57.83081055 C-52.47797736 60.86794873 -52.51740033 63.90447916 -52.55859375 66.94140625 C-52.55870956 67.87279922 -52.55882538 68.8041922 -52.5589447 69.7638092 C-52.65647387 76.18265702 -53.64482857 80.56201933 -58.125 85.4375 C-62.03815214 87.73435017 -65.48240876 88.32454025 -70 88.125 C-75.37285867 86.30025555 -78.47401035 83.17697929 -81 78.125 C-81.10203009 76.79347692 -81.14577691 75.45719928 -81.15771484 74.12182617 C-81.16797699 73.29724411 -81.17823914 72.47266205 -81.18881226 71.62309265 C-81.19611359 70.73040176 -81.20341492 69.83771088 -81.2109375 68.91796875 C-81.23900964 67.03319449 -81.26767413 65.14842898 -81.296875 63.26367188 C-81.33811843 60.28800737 -81.37499995 57.31250553 -81.40136719 54.33666992 C-81.42900258 51.46759155 -81.47487857 48.59925913 -81.5234375 45.73046875 C-81.5283168 44.40054146 -81.5283168 44.40054146 -81.53329468 43.04374695 C-81.63010698 38.16973316 -82.04805197 35.19017851 -85 31.125 C-85 30.465 -85 29.805 -85 29.125 C-90.34863264 26.70261203 -95.20147454 26.40999385 -101 27.125 C-104.66061191 29.21677823 -106.54207978 31.21119506 -108 35.125 C-108.17838282 38.03513114 -108.25317702 40.85664934 -108.23828125 43.765625 C-108.2537061 45.49349739 -108.27001011 47.22136212 -108.28710938 48.94921875 C-108.30352305 51.65918968 -108.31251677 54.36859699 -108.30541992 57.07861328 C-108.30278438 59.70408952 -108.33103284 62.32787568 -108.36328125 64.953125 C-108.35307449 65.75236389 -108.34286774 66.55160278 -108.33235168 67.37506104 C-108.43519183 73.35855899 -110.15604984 77.51137488 -114 82.125 C-118.31157923 85.12435946 -121.79960229 85.77504971 -127 85.125 C-131.84923827 82.65283931 -134.45869038 79.90771729 -137 75.125 C-137.55742998 71.70267932 -137.53411189 68.3324744 -137.50390625 64.87109375 C-137.51332748 63.89261978 -137.52274872 62.91414581 -137.53245544 61.90602112 C-137.56104626 58.79129927 -137.56418539 55.67734232 -137.5625 52.5625 C-137.56610942 49.44419925 -137.57565066 46.32645229 -137.60325623 43.20826721 C-137.62002477 41.27176411 -137.62293588 39.33507843 -137.61024475 37.39854431 C-137.64933279 32.39461765 -137.92043436 29.27979174 -141 25.125 C-141 24.465 -141 23.805 -141 23.125 C-141.61875 22.815625 -142.2375 22.50625 -142.875 22.1875 C-144.25 21.5 -145.625 20.8125 -147 20.125 C-152.45226084 19.6973717 -156.25692887 20.35075085 -161 23.125 C-165.20376817 28.87610961 -165.56549061 33.44667366 -165.50390625 40.44140625 C-165.51332748 41.4160936 -165.52274872 42.39078094 -165.53245544 43.39500427 C-165.56100174 46.49271929 -165.56418714 49.58966437 -165.5625 52.6875 C-165.56611316 55.78879318 -165.57569345 58.88953009 -165.60325623 61.9907074 C-165.61998387 63.91500337 -165.62296824 65.83948259 -165.61024475 67.7638092 C-165.65111224 72.97592328 -166.08383492 76.61585586 -169 81.125 C-172.93131116 84.68775074 -176.6450642 85.49561809 -181.94140625 85.3984375 C-185.45707642 84.93146044 -187.38179958 83.44567765 -190 81.125 C-193.711534 75.73493162 -194.55694275 71.98682189 -194.43359375 65.5234375 C-194.44319319 63.88281152 -194.4529639 62.24218653 -194.46289062 60.6015625 C-194.45427629 58.04285837 -194.4373654 55.48440377 -194.4152832 52.92578125 C-194.40075263 50.43700383 -194.41601174 47.94966386 -194.43359375 45.4609375 C-194.41711288 44.69937347 -194.40063202 43.93780945 -194.38365173 43.15316772 C-194.42204289 39.05992973 -194.80930185 37.35314494 -197.47290039 34.16650391 C-198.30684326 33.49280762 -199.14078613 32.81911133 -200 32.125 C-200.33 31.795 -200.66 31.465 -201 31.125 C-206.14977256 30.65881006 -211.37580285 30.64372348 -216 33.125 C-217.9576425 37.62440004 -218.25047879 41.59480441 -218.2734375 46.46484375 C-218.29372334 47.87175279 -218.31457407 49.27865378 -218.3359375 50.68554688 C-218.35850483 52.87531391 -218.37500604 55.06476072 -218.38085938 57.25463867 C-218.44908414 72.43635518 -218.44908414 72.43635518 -223 78.125 C-226.80651856 81.59564927 -230.68957501 81.57552652 -235.62890625 81.4140625 C-239.72312657 80.91493185 -241.91031765 79.21468235 -244.75 76.375 C-246.49651702 73.23126937 -247.29377347 70.69325377 -247 67.125 C-245.43139973 62.89362389 -243.2971949 59.01122104 -241.125 55.0625 C-240.52800293 53.95011963 -239.93100586 52.83773926 -239.31591797 51.69165039 C-227.82348626 30.50373481 -215.91531497 13.83557134 -192.3828125 5.16015625 C-181.92587408 2.11400462 -170.80431001 1.81105367 -160 1.125 C-158.63882132 1.03258529 -157.27765641 0.93996747 -155.91650391 0.84716797 C-104.20933188 -2.58844102 -51.76239858 -2.04229841 0 0 Z " fill="#178CE1" transform="translate(326,66.875)"/>
<path d="M0 0 C74.58 0 149.16 0 226 0 C218.65566038 13.46462264 218.65566038 13.46462264 215 20.0625 C214.60039062 20.78759766 214.20078125 21.51269531 213.7890625 22.25976562 C212.99045678 23.70056226 212.17295701 25.13109849 211.33417702 26.54888344 C209.94056411 28.96728863 209.94056411 28.96728863 209.04855919 31.58971214 C207.70889381 34.7208529 206.50868235 36.67289513 204 39 C198.22923684 40.51285945 192.5410301 40.26525506 186.61181641 40.13525391 C184.81785236 40.13243203 183.02387677 40.13401873 181.22991943 40.13967896 C176.36577938 40.14254696 171.504108 40.08378392 166.64054155 40.01393938 C161.55576651 39.95140093 156.47093403 39.94555025 151.38583374 39.9336853 C141.75942805 39.90261082 132.13415881 39.82056037 122.50825346 39.72019041 C111.54838696 39.60839336 100.58846601 39.55342848 89.62817121 39.50323606 C67.08481754 39.39872598 44.54247246 39.22284869 22 39 C21.58226318 38.27522461 21.16452637 37.55044922 20.73413086 36.80371094 C19.14827685 34.05259232 17.56214144 31.30163618 15.97583008 28.55078125 C14.96609926 26.79959985 13.95667793 25.04824002 12.94726562 23.296875 C12.29306641 22.1625 11.63886719 21.028125 10.96484375 19.859375 C10.31112793 18.72564453 9.65741211 17.59191406 8.98388672 16.42382812 C7.64357756 14.11069797 6.29822388 11.80170124 4.94189453 9.49804688 C4.3023584 8.41072266 3.66282227 7.32339844 3.00390625 6.203125 C2.42584229 5.22504883 1.84777832 4.24697266 1.25219727 3.23925781 C0 1 0 1 0 0 Z " fill="#706E6E" transform="translate(143,263)"/>
<path d="M0 0 C2.72716291 1.34176194 5.47499057 2.63441402 8.22705078 3.92431641 C34.54621734 16.31707793 34.54621734 16.31707793 37.78564453 21.18603516 C38.48173828 22.224375 38.48173828 22.224375 39.19189453 23.28369141 C39.79517578 24.22535156 39.79517578 24.22535156 40.41064453 25.18603516 C41.02939453 25.99041016 41.64814453 26.79478516 42.28564453 27.62353516 C44.56071025 32.8056293 43.97296049 38.16836953 42.16064453 43.43603516 C39.704565 49.14047794 36.54000038 52.9009489 30.83642578 55.45556641 C11.52006061 61.27224964 -19.10414892 49.82599822 -36.75341797 41.81884766 C-42.14757489 38.71312094 -45.32165885 34.77654565 -48.02685547 29.24853516 C-49.68599388 20.21544827 -48.20797791 13.23499368 -43.58935547 5.18603516 C-31.50800358 -9.46916997 -15.48132202 -7.66980432 0 0 Z " fill="#FEFBFA" transform="translate(87.58935546875,227.81396484375)"/>
<path d="M0 0 C6.86519747 4.65594595 10.47274268 10.77538631 12.59765625 18.76171875 C13.61284383 25.60905538 12.6394029 31.10327344 8.59765625 36.76171875 C3.39577742 43.62024689 -5.32449033 45.5557881 -13.17675781 48.05029297 C-15.24809687 48.71241254 -17.30596333 49.40511932 -19.36328125 50.109375 C-56.42788286 62.56601211 -56.42788286 62.56601211 -69.40234375 56.26171875 C-74.48840256 52.02333641 -78.74666124 47.17267385 -79.74609375 40.44921875 C-80.21875256 32.31948724 -77.7921005 26.83429941 -72.40234375 20.76171875 C-67.09736893 16.07190174 -61.38494884 13.12087441 -54.90234375 10.38671875 C-53.1380649 9.6200761 -51.3750592 8.85049749 -49.61328125 8.078125 C-48.30375488 7.50408936 -48.30375488 7.50408936 -46.96777344 6.91845703 C-42.43578641 4.87500875 -38.01422861 2.61626274 -33.60351562 0.32470703 C-22.06581495 -5.60215156 -11.53123226 -6.51765302 0 0 Z " fill="#FEFBFA" transform="translate(460.40234375,226.23828125)"/>
<path d="M0 0 C1.90547604 3.58777346 2.59542338 6.72506181 3.21875 10.7578125 C3.32152252 11.41438843 3.42429504 12.07096436 3.53018188 12.74743652 C3.86035533 14.87229219 4.18032924 16.99854129 4.5 19.125 C4.72483234 20.58256048 4.94993063 22.04007997 5.17529297 23.49755859 C6.55369004 32.50916524 7.71319694 41.51261569 8.4453125 50.6015625 C9.1740695 55.06648214 10.40773653 58.50515411 13.75154114 61.64437866 C16.56944506 63.34332488 18.39086542 63.38999929 21.6706543 63.41650391 C22.80830734 63.43307037 23.94596039 63.44963684 25.11808777 63.46670532 C26.34111099 63.46995819 27.56413422 63.47321106 28.82421875 63.4765625 C30.08136185 63.49214203 31.33850494 63.50772156 32.63374329 63.52377319 C35.96904432 63.5632629 39.30396601 63.59060526 42.6394043 63.61126709 C47.35086929 63.64285845 52.06213065 63.69424225 56.77339172 63.74765015 C59.28178561 63.77498064 61.79025331 63.79628624 64.29875183 63.81118774 C65.99104668 63.82658096 65.99104668 63.82658096 67.7175293 63.84228516 C69.21499947 63.85202866 69.21499947 63.85202866 70.74272156 63.86196899 C73 64 73 64 74 65 C74.26913351 69.53740543 74.27147943 74.08080434 74.29516602 78.62524414 C74.31219854 80.89728699 74.35603313 83.16780434 74.40039062 85.43945312 C74.4994079 94.51783016 74.36314087 103.1678843 67.96484375 110.25390625 C66.96130859 110.90166016 66.96130859 110.90166016 65.9375 111.5625 C65.26589844 112.01753906 64.59429687 112.47257812 63.90234375 112.94140625 C60.80257994 114.66632615 58.22808658 115.13136725 54.74731445 115.17700195 C53.89244949 115.18983719 53.03758453 115.20267242 52.15681458 115.21589661 C51.23494858 115.22328354 50.31308258 115.23067047 49.36328125 115.23828125 C48.4098735 115.246353 47.45646576 115.25442474 46.47416687 115.26274109 C44.45423191 115.27657449 42.43427365 115.28729998 40.41430664 115.29516602 C37.34150166 115.31233793 34.26978424 115.3562261 31.19726562 115.40039062 C29.23177872 115.41052164 27.26628269 115.41903646 25.30078125 115.42578125 C24.38903641 115.44328934 23.47729156 115.46079742 22.53791809 115.47883606 C15.92667432 115.45662027 10.44142128 114.18534625 5.47431946 109.58784485 C0.05229468 103.45849015 -0.28822813 98.05536844 -0.22705078 90.25268555 C-0.22734283 89.27659836 -0.22763489 88.30051117 -0.22793579 87.29484558 C-0.22654482 84.07537888 -0.21099438 80.85614492 -0.1953125 77.63671875 C-0.19158155 75.4018415 -0.18873496 73.1669626 -0.18673706 70.93208313 C-0.1791071 65.0548347 -0.15946398 59.17768539 -0.1373291 53.30047607 C-0.11685701 47.30124248 -0.10773242 41.30199284 -0.09765625 35.30273438 C-0.07621757 23.53511274 -0.04208922 11.76756462 0 0 Z " fill="#454545" transform="translate(15,339)"/>
<path d="M0 0 C0.33 0 0.66 0 1 0 C1.0927781 12.90015305 1.16380494 25.8002264 1.20724869 38.70064545 C1.22810204 44.69117539 1.2563791 50.68147665 1.30175781 56.671875 C1.34529505 62.45553325 1.36915404 68.23897186 1.37950897 74.02278137 C1.38688613 76.22674516 1.40129202 78.43069725 1.42292023 80.63456726 C1.45205828 83.72734328 1.45595157 86.81921765 1.45410156 89.91210938 C1.46848267 90.81842102 1.48286377 91.72473267 1.49768066 92.6585083 C1.45561298 99.17992341 0.11751251 104.62976583 -4.41204453 109.52651215 C-10.53201291 114.93650488 -16.03214071 115.31689309 -23.83203125 115.3359375 C-25.25789803 115.3459227 -25.25789803 115.3459227 -26.71257019 115.35610962 C-28.72055126 115.36621679 -30.72856579 115.37092724 -32.73657227 115.37060547 C-35.79174878 115.37497035 -38.84547024 115.41128779 -41.90039062 115.44921875 C-43.85676593 115.45508915 -45.81314805 115.45905705 -47.76953125 115.4609375 C-48.67500198 115.47530853 -49.58047272 115.48967957 -50.51338196 115.50448608 C-56.49507191 115.46189392 -60.99933319 114.37952094 -66 111 C-68.05859375 108.78125 -68.05859375 108.78125 -69.4375 106.5 C-69.91058594 105.7471875 -70.38367188 104.994375 -70.87109375 104.21875 C-73.16352574 99.71320893 -73.14724878 95.40410866 -73.1328125 90.42578125 C-73.13376923 89.70134323 -73.13472595 88.97690521 -73.13571167 88.23051453 C-73.13639033 86.70502637 -73.134558 85.17953529 -73.13037109 83.65405273 C-73.124995 81.31031899 -73.13033859 78.96677486 -73.13671875 76.62304688 C-73.13605837 75.14062458 -73.13477804 73.65820239 -73.1328125 72.17578125 C-73.13483673 71.47165604 -73.13686096 70.76753082 -73.13894653 70.04206848 C-73.11496776 65.11496776 -73.11496776 65.11496776 -72 64 C-70.2519441 63.90295116 -68.5000152 63.87484079 -66.74926758 63.87402344 C-65.6275264 63.87021667 -64.50578522 63.86640991 -63.35005188 63.86248779 C-62.12723007 63.86146057 -60.90440826 63.86043335 -59.64453125 63.859375 C-57.07746511 63.84104391 -54.51040757 63.82147333 -51.94335938 63.80078125 C-47.87908953 63.77044816 -43.81512616 63.74767506 -39.75073242 63.74951172 C-35.83998934 63.75045239 -31.93007851 63.71162428 -28.01953125 63.671875 C-26.8068306 63.6789447 -25.59412994 63.6860144 -24.34468079 63.69329834 C-17.38305375 63.71411492 -17.38305375 63.71411492 -11.26245117 60.81469727 C-8.7821394 57.72896138 -8.14964893 56.19132816 -7.78125 52.29296875 C-7.65234375 51.14876465 -7.5234375 50.00456055 -7.390625 48.82568359 C-7.26171875 47.56320801 -7.1328125 46.30073242 -7 45 C-6.61843126 42.13831964 -6.19774001 39.28255905 -5.78125 36.42578125 C-5.56806672 34.91875298 -5.3558368 33.41158957 -5.14453125 31.90429688 C-5.03834473 31.14882568 -4.9321582 30.39335449 -4.82275391 29.61499023 C-4.60684622 28.07472898 -4.39168193 26.53436334 -4.17724609 24.99389648 C-3.00934437 16.61566374 -1.83025913 8.26556268 0 0 Z " fill="#454545" transform="translate(496,339)"/>
<path d="M0 0 C1.11503906 -0.01546875 2.23007812 -0.0309375 3.37890625 -0.046875 C9.71371913 -0.01667327 13.71905262 0.2003031 18.5 4.5 C21.92917072 8.19989473 22.79969749 11.0792349 23 16 C22.78536 20.95013489 22.00774539 23.81686734 18.5 27.5 C6.15433085 37.85730417 -10.46144867 35.85571537 -25.5 35.5 C-26.17119549 34.0437455 -26.83681807 32.58492133 -27.5 31.125 C-27.87125 30.31289062 -28.2425 29.50078125 -28.625 28.6640625 C-29.5 26.5 -29.5 26.5 -29.5 24.5 C-27.19 24.5 -24.88 24.5 -22.5 24.5 C-22.54640625 23.55898437 -22.5928125 22.61796875 -22.640625 21.6484375 C-22.93560209 11.47172775 -22.93560209 11.47172775 -20.875 6.875 C-14.15786087 0.15786087 -9.35198956 -0.12973858 0 0 Z " fill="#EC6161" transform="translate(489.5,151.5)"/>
<path d="M0 0 C1.11503906 -0.01546875 2.23007812 -0.0309375 3.37890625 -0.046875 C11.53460903 -0.00799203 15.10155833 1.10155833 20.875 6.875 C23.43295624 12.58121007 22.80372738 18.34108376 22.5 24.5 C24.81 24.5 27.12 24.5 29.5 24.5 C29.0247412 26.14696604 28.54468109 27.79254728 28.0625 29.4375 C27.79566406 30.35402344 27.52882812 31.27054688 27.25390625 32.21484375 C26.5 34.5 26.5 34.5 25.5 35.5 C11.24088445 36.62936713 -5.22064459 36.90322154 -17.5 28.5 C-22.22830684 23.40797725 -22.85732055 20.05974647 -22.77734375 13.26171875 C-22.26766113 8.1864284 -19.79146694 5.66146779 -16.1328125 2.37109375 C-11.30307717 -0.7560677 -5.54183291 -0.07688092 0 0 Z " fill="#EC6161" transform="translate(22.5,151.5)"/>
<path d="M0 0 C4.33460571 2.49217577 7.37862946 5.88225892 9.625 10.375 C10.28154104 18.07052203 10.50561888 24.17529494 5.625 30.375 C0.1754569 35.54507935 -5.14676078 36.95367177 -12.515625 36.82421875 C-18.44614338 35.89251163 -22.80189963 32.43969424 -26.375 27.75 C-28.61519859 22.42952835 -29.24546785 17.09163021 -28.375 11.375 C-26.09459758 6.13821872 -22.65678082 1.47806181 -17.421875 -1.03515625 C-11.57677945 -2.71952539 -5.5566109 -2.4999497 0 0 Z " fill="#FFBD4A" transform="translate(76.375,230.625)"/>
<path d="M0 0 C4.4864081 2.58866668 7.69983076 6.44985157 9.23828125 11.41796875 C10.47228088 17.86218904 9.77637435 22.67809171 6.625 28.4375 C2.81133117 32.97267375 -0.94003174 35.95807958 -6.921875 36.79296875 C-13.72664626 37.1407264 -18.20555094 35.91199954 -23.375 31.4375 C-28.59767027 25.81308587 -28.72662239 21.0415858 -28.65234375 13.60546875 C-28.16049765 7.98733932 -25.33427687 5.18542591 -21.3125 1.625 C-15.26415525 -2.87908652 -6.86055013 -3.0578452 0 0 Z " fill="#FFBD4A" transform="translate(454.375,230.5625)"/>
<path d="M0 0 C0.67813248 -0.00191345 1.35626495 -0.0038269 2.0549469 -0.00579834 C3.48984142 -0.00715981 4.92474826 -0.00346599 6.35961914 0.00488281 C8.55448167 0.01556695 10.74852265 0.00499544 12.94335938 -0.0078125 C14.33724139 -0.00649057 15.73112289 -0.00392749 17.125 0 C18.39529053 0.00225586 19.66558105 0.00451172 20.97436523 0.00683594 C24.12890625 0.265625 24.12890625 0.265625 27.12890625 2.265625 C27.42107494 4.79609323 27.52523765 7.0785538 27.4921875 9.609375 C27.49293526 10.69671936 27.49293526 10.69671936 27.49369812 11.80603027 C27.49135666 13.33930196 27.48162381 14.87257741 27.46508789 16.40576172 C27.44149749 18.75653345 27.44452546 21.10617129 27.45117188 23.45703125 C27.4455951 24.94531928 27.43848522 26.43360252 27.4296875 27.921875 C27.43105461 28.97973206 27.43105461 28.97973206 27.43244934 30.05895996 C27.35993846 35.03459279 27.35993846 35.03459279 25.12890625 37.265625 C20.08160829 37.26699135 17.63404406 35.37405527 14.18008423 32.03718567 C13.59858612 31.44870346 13.01708801 30.86022125 12.41796875 30.25390625 C11.80496918 29.64806198 11.1919696 29.04221771 10.56039429 28.41801453 C9.27182504 27.13720948 7.98959077 25.8500033 6.71337891 24.55688477 C4.75837905 22.58264183 2.77579851 20.6395078 0.7890625 18.69726562 C-0.46140924 17.44708422 -1.71016785 16.19518644 -2.95703125 14.94140625 C-3.55067474 14.3630452 -4.14431824 13.78468414 -4.75595093 13.188797 C-7.50873268 10.35623523 -8.76454144 8.97483421 -9.36572266 4.97338867 C-8.33062455 -0.69308376 -5.01636868 0.00891629 0 0 Z " fill="#FEDF1F" transform="translate(439.87109375,337.734375)"/>
<path d="M0 0 C0.67813248 -0.00191345 1.35626495 -0.0038269 2.0549469 -0.00579834 C3.48984142 -0.00715981 4.92474826 -0.00346599 6.35961914 0.00488281 C8.55448167 0.01556695 10.74852265 0.00499544 12.94335938 -0.0078125 C14.33724139 -0.00649057 15.73112289 -0.00392749 17.125 0 C18.39529053 0.00225586 19.66558105 0.00451172 20.97436523 0.00683594 C24.12890625 0.265625 24.12890625 0.265625 27.12890625 2.265625 C27.74554166 5.26260282 27.79223921 7.25657401 26.07147217 9.87417603 C24.52429037 11.64986806 22.9018112 13.29786719 21.21484375 14.94140625 C20.60758453 15.55203415 20.00032532 16.16266205 19.37466431 16.79179382 C18.08891258 18.07724703 16.79568343 19.35525857 15.49560547 20.6262207 C13.5123054 22.56989367 11.55996854 24.54114402 9.609375 26.51757812 C8.35461166 27.76478096 7.09815488 29.01028289 5.83984375 30.25390625 C5.25834564 30.84238846 4.67684753 31.43087067 4.07772827 32.03718567 C0.62376844 35.37405527 -1.82379579 37.26699135 -6.87109375 37.265625 C-9.33112162 34.80559713 -9.1166138 33.41768661 -9.14898682 30.05895996 C-9.14493835 29.35372192 -9.14088989 28.64848389 -9.13671875 27.921875 C-9.1386322 27.19697876 -9.14054565 26.47208252 -9.14251709 25.72521973 C-9.14387862 24.19197238 -9.14018439 22.6587135 -9.13183594 21.12548828 C-9.12113553 18.77480241 -9.13173183 16.42488077 -9.14453125 14.07421875 C-9.14320965 12.58593581 -9.14064724 11.09765334 -9.13671875 9.609375 C-9.14076721 8.90413696 -9.14481567 8.19889893 -9.14898682 7.47229004 C-9.07918851 0.23066048 -6.77133085 0.01203563 0 0 Z " fill="#FEDF1F" transform="translate(53.87109375,337.734375)"/>
<path d="M0 0 C3.62011046 2.33296007 5.89022378 4.96794755 7.8125 8.8125 C8.35699744 15.23756974 7.61657493 18.56904537 3.8125 23.8125 C-0.05307781 27.44380037 -4.44393698 27.37128876 -9.5234375 27.234375 C-13.76673292 26.5624162 -15.35641652 25.0065429 -18.1875 21.8125 C-20.91512384 17.32602906 -20.70216105 12.91760553 -20.1875 7.8125 C-18.62084979 3.57332884 -16.09396168 1.61682016 -12.08203125 -0.4609375 C-7.73895699 -2.12652887 -4.25717399 -1.586006 0 0 Z " fill="#FFDB71" transform="translate(412.1875,250.1875)"/>
<path d="M0 0 C3.61187763 1.34546039 6.32437909 3.25899642 8.9375 6.125 C10.53686742 10.45270006 10.656874 14.44567359 10 19 C7.83701163 23.40608743 5.60319521 26.1987497 1 28 C-4.01414487 28.68031111 -7.82874671 28.55368338 -12.4375 26.375 C-16.36664148 22.73335668 -18.12217703 19.32997533 -18.4375 14 C-18.25027669 9.73456459 -16.81006484 7.25375928 -14 4 C-9.61697029 0.21465616 -5.71044974 -1.09137939 0 0 Z " fill="#FFDB71" transform="translate(110,249)"/>
</svg>
